#!OML:ASF I:\Actors\actors\Patient Classification 2\Patient 1\Session 1\actor1.ASF
:FULLY-SPECIFIED
:DEGREES
1024
root -0.824523 18.57 6.08244 -4.09487 -1.59973 -3.14758
lowerback 7.01363 0.701011 1.10593
upperback -3.37904 1.11236 0.873756
thorax -7.48333 0.514582 0.147577
lowerneck -10.1128 -2.83752 -2.23679
upperneck 25.3415 -5.07245 5.72504
head 9.89875 -1.9438 1.79901
rclavicle -2.71341e-014 -5.56597e-015
rhumerus -53.7621 -4.71797 -84.0339
rradius 46.0535
rwrist 10.3805
rhand -6.119 -37.3682
rfingers 7.12502
rthumb 19.718 -66.3881
lclavicle -2.71341e-014 -5.56597e-015
lhumerus -47.3417 7.53576 84.4834
lradius 36.2376
lwrist -10.3943
lhand -2.32125 -22.6524
lfingers 7.12502
lthumb 23.3652 5.94937
rfemur 14.4721 7.07361 19.3967
rtibia 4.77083e-015
rfoot -22.3328 -13.7785
rtoes -3.72602
lfemur 1.00466 -4.44655 -12.0361
ltibia 23.0553
lfoot -23.3873 11.486
ltoes -54.1711
1025
root -0.835041 18.5692 6.08436 -4.12366 -1.84496 -3.2107
lowerback 6.79187 0.713291 1.21078
upperback -3.39083 1.13433 0.860814
thorax -7.36504 0.520562 0.0751126
lowerneck -10.0555 -2.74585 -2.0955
upperneck 25.5717 -4.95222 5.59351
head 9.95757 -1.88649 1.7456
rclavicle 2.21645e-014 7.15625e-015
rhumerus -53.3797 -5.00842 -83.932
rradius 44.7861
rwrist 12.0576
rhand -6.19379 -35.9128
rfingers 7.12502
rthumb 19.6461 -64.9401
lclavicle 2.21645e-014 7.15625e-015
lhumerus -47.3858 7.73934 84.5442
lradius 36.3238
lwrist -11.2994
lhand -1.85416 -22.5028
lfingers 7.12502
lthumb 23.8133 6.04129
rfemur 14.4838 7.30533 19.5385
rtibia 2.70347e-014
rfoot -22.2987 -13.8198
rtoes -3.87181
lfemur 1.15074 -4.49527 -11.9638
ltibia 23
lfoot -23.5231 11.6856
ltoes -54.1009
1026
root -0.84377 18.5683 6.08751 -4.15681 -2.13439 -3.24273
lowerback 6.52231 0.754217 1.27308
upperback -3.3537 1.18949 0.866479
thorax -7.16786 0.546155 0.0429705
lowerneck -10.0124 -2.65671 -1.94174
upperneck 25.7268 -4.80686 5.36588
head 9.98841 -1.82793 1.65818
rclavicle 3.95085e-015 7.15625e-015
rhumerus -53.04 -5.27932 -83.7896
rradius 43.6034
rwrist 14.3308
rhand -6.67848 -34.1138
rfingers 7.12502
rthumb 19.18 -63.1881
lclavicle 3.95085e-015 7.15625e-015
lhumerus -47.3364 7.66735 84.7982
lradius 36.0624
lwrist -11.2515
lhand -1.55265 -23.8053
lfingers 7.12502
lthumb 24.1024 4.70078
rfemur 14.4983 7.58507 19.642
rtibia 6.36111e-015
rfoot -22.3159 -13.8254
rtoes -3.73898
lfemur 1.32819 -4.59037 -11.9571
ltibia 22.9319
lfoot -23.7147 11.9584
ltoes -54.0214
1027
root -0.853172 18.5669 6.09105 -4.19109 -2.39354 -3.26036
lowerback 6.2071 0.809895 1.2776
upperback -3.27083 1.25797 0.888713
thorax -6.89728 0.582198 0.0604478
lowerneck -9.97554 -2.59475 -1.82808
upperneck 25.7616 -4.68693 5.15023
head 9.97993 -1.78552 1.57763
rclavicle -7.52897e-015 -2.98177e-015
rhumerus -52.7227 -5.51599 -83.6345
rradius 42.7189
rwrist 15.9401
rhand -7.00089 -33.4213
rfingers 7.12502
rthumb 18.87 -62.526
lclavicle -7.52897e-015 -2.98177e-015
lhumerus -47.2922 6.912 85.5979
lradius 36.6561
lwrist -11.3237
lhand -0.212156 -22.5429
lfingers 7.12502
lthumb 25.3871 5.78689
rfemur 14.5199 7.83613 19.725
rtibia -1.59028e-014
rfoot -22.3487 -13.7991
rtoes -3.57264
lfemur 1.503 -4.80428 -11.9919
ltibia 22.8634
lfoot -23.9152 12.3532
ltoes -53.9962
1028
root -0.86363 18.5644 6.09353 -4.26069 -2.6017 -3.26959
lowerback 5.93845 0.845867 1.23214
upperback -3.18039 1.29657 0.914021
thorax -6.64751 0.605741 0.112615
lowerneck -9.9105 -2.53439 -1.7399
upperneck 25.7737 -4.58194 5.00661
head 9.96137 -1.74538 1.52517
rclavicle 1.29707e-014 -9.93923e-015
rhumerus -52.4736 -5.6041 -83.5577
rradius 42.1373
rwrist 16.8237
rhand -6.59963 -33.7615
rfingers 7.12502
rthumb 19.2558 -62.8281
lclavicle 1.29707e-014 -9.93923e-015
lhumerus -47.2697 6.26446 86.2796
lradius 37.1063
lwrist -11.1794
lhand 0.515576 -22.2233
lfingers 7.12502
lthumb 26.0841 6.00555
rfemur 14.5833 8.03652 19.8034
rtibia -1.74931e-014
rfoot -22.3483 -13.789
rtoes -3.4951
lfemur 1.69181 -4.93369 -12.0091
ltibia 22.7972
lfoot -24.054 12.6528
ltoes -53.9705
